<svg xmlns="http://www.w3.org/2000/svg" xmlns:xlink="http://www.w3.org/1999/xlink" id="ec4qhmsv5c9j1" shape-rendering="geometricPrecision" text-rendering="geometricPrecision" viewBox="0 0 520 150"><style>@keyframes ec4qhmsv5c9j5_ts__ts{0%,36%{transform:translate(79.984375px,105px) scale(1,1)}32%{transform:translate(79.984375px,105px) scale(1,1);animation-timing-function:cubic-bezier(.68,-.55,.265,1.55)}34%{transform:translate(79.984375px,105px) scale(1.05,1.15);animation-timing-function:cubic-bezier(.68,-.55,.265,1.55)}}@keyframes ec4qhmsv5c9j25_ts__ts{0%,5.6%{transform:translate(79.984375px,75px) scale(1,1)}1.6%{transform:translate(79.984375px,75px) scale(1,1);animation-timing-function:cubic-bezier(.68,-.55,.265,1.55)}3.6%{transform:translate(79.984375px,75px) scale(1.052943,1.046628);animation-timing-function:cubic-bezier(.68,-.55,.265,1.55)}}@keyframes ec4qhmsv5c9j36_f_p{0%,20%,51.36%{fill:#f5f5f5}15.84%,47.2%{fill:#f5f5f5;animation-timing-function:cubic-bezier(.785,.135,.15,.86)}18%,49.36%{fill:#fdd663;animation-timing-function:cubic-bezier(.785,.135,.15,.86)}}@keyframes ec4qhmsv5c9j37_f_p{0%,85.04%{fill:#f5f5f5}80.88%{fill:#f5f5f5;animation-timing-function:cubic-bezier(.785,.135,.15,.86)}83.04%{fill:#fdd663;animation-timing-function:cubic-bezier(.785,.135,.15,.86)}}@keyframes ec4qhmsv5c9j48_to__to{0%{transform:translate(0,0)}21.84%{transform:translate(0,0);animation-timing-function:cubic-bezier(1,0,0,1)}25.6%{transform:translate(110px,45.5px)}}@keyframes ec4qhmsv5c9j49_ts__ts{0%{transform:translate(225px,68px) scale(0,0)}12.08%{transform:translate(225px,68px) scale(0,0);animation-timing-function:cubic-bezier(.68,-.55,.265,1.55)}14%{transform:translate(225px,68px) scale(1,1)}}@keyframes ec4qhmsv5c9j50_ts__ts{0%{transform:translate(225px,41px) scale(0,0)}6%{transform:translate(225px,41px) scale(0,0);animation-timing-function:cubic-bezier(.68,-.55,.265,1.55)}8%{transform:translate(225px,41px) scale(1,1)}}@keyframes ec4qhmsv5c9j51_ts__ts{0%{transform:translate(225px,50px) scale(0,0)}8%{transform:translate(225px,50px) scale(0,0);animation-timing-function:cubic-bezier(.68,-.55,.265,1.55)}10%{transform:translate(225px,50px) scale(1,1)}}@keyframes ec4qhmsv5c9j52_ts__ts{0%{transform:translate(225px,59px) scale(0,0)}10%{transform:translate(225px,59px) scale(0,0);animation-timing-function:cubic-bezier(.68,-.55,.265,1.55)}12%{transform:translate(225px,59px) scale(1,1)}}@keyframes ec4qhmsv5c9j53_to__to{0%{transform:translate(0,0)}85.6%{transform:translate(0,0);animation-timing-function:cubic-bezier(1,0,0,1)}88%{transform:translate(110px,45.476563px)}}@keyframes ec4qhmsv5c9j54_ts__ts{0%{transform:translate(245px,41px) scale(0,0)}62.96%{transform:translate(245px,41px) scale(0,0);animation-timing-function:cubic-bezier(.785,.135,.15,.86)}64.96%{transform:translate(245px,41px) scale(1,1)}}@keyframes ec4qhmsv5c9j55_ts__ts{0%{transform:translate(245px,50px) scale(0,0)}64.96%{transform:translate(245px,50px) scale(0,0);animation-timing-function:cubic-bezier(.785,.135,.15,.86)}66.96%{transform:translate(245px,50px) scale(1,1)}}@keyframes ec4qhmsv5c9j56_ts__ts{0%{transform:translate(245px,59px) scale(0,0)}71.76%{transform:translate(245px,59px) scale(0,0);animation-timing-function:cubic-bezier(.785,.135,.15,.86)}73.76%{transform:translate(245px,59px) scale(1,1)}}@keyframes ec4qhmsv5c9j58_to__to{0%{transform:translate(0,0)}52%{transform:translate(0,0);animation-timing-function:cubic-bezier(1,0,0,1)}55.2%{transform:translate(110px,45.476563px)}}@keyframes ec4qhmsv5c9j59_ts__ts{0%{transform:translate(234.992188px,41px) scale(0,0)}38%{transform:translate(234.992188px,41px) scale(0,0);animation-timing-function:cubic-bezier(.785,.135,.15,.86)}40%{transform:translate(234.992188px,41px) scale(1,1)}}@keyframes ec4qhmsv5c9j60_ts__ts{0%{transform:translate(234.992188px,50px) scale(0,0)}40%{transform:translate(234.992188px,50px) scale(0,0);animation-timing-function:cubic-bezier(.785,.135,.15,.86)}42%{transform:translate(234.992188px,50px) scale(1,1)}}@keyframes ec4qhmsv5c9j61_ts__ts{0%{transform:translate(234.992188px,59px) scale(0,0)}42%{transform:translate(234.992188px,59px) scale(0,0);animation-timing-function:cubic-bezier(.785,.135,.15,.86)}44%{transform:translate(234.992188px,59px) scale(1,1)}}@keyframes ec4qhmsv5c9j62_ts__ts{0%{transform:translate(234.992188px,68px) scale(0,0)}44%{transform:translate(234.992188px,68px) scale(0,0);animation-timing-function:cubic-bezier(.785,.135,.15,.86)}46%{transform:translate(234.992188px,68px) scale(1,1)}}@keyframes ec4qhmsv5c9j63_to__to{0%{transform:translate(0,0)}88%{transform:translate(0,0);animation-timing-function:cubic-bezier(1,0,0,1)}90.4%{transform:translate(110px,45.5px)}}@keyframes ec4qhmsv5c9j64_ts__ts{0%{transform:translate(255px,41px) scale(0,0)}67.2%{transform:translate(255px,41px) scale(0,0);animation-timing-function:cubic-bezier(.785,.135,.15,.86)}69.2%{transform:translate(255px,41px) scale(1,1)}}@keyframes ec4qhmsv5c9j65_ts__ts{0%{transform:translate(255px,50px) scale(0,0)}69.84%{transform:translate(255px,50px) scale(0,0);animation-timing-function:cubic-bezier(.785,.135,.15,.86)}71.84%{transform:translate(255px,50px) scale(1,1)}}@keyframes ec4qhmsv5c9j66_ts__ts{0%{transform:translate(255px,59px) scale(0,0)}74.16%{transform:translate(255px,59px) scale(0,0);animation-timing-function:cubic-bezier(.785,.135,.15,.86)}76.16%{transform:translate(255px,59px) scale(1,1)}}@keyframes ec4qhmsv5c9j67_ts__ts{0%,97.76%{transform:translate(239.133524px,134.619247px) scale(0,0)}78%{transform:translate(239.133524px,134.619247px) scale(0,0);animation-timing-function:cubic-bezier(1,0,0,1)}80%{transform:translate(239.133524px,134.619247px) scale(.464557,.464557)}96.16%{transform:translate(239.133524px,134.619247px) scale(.464557,.464557);animation-timing-function:cubic-bezier(1,0,0,1)}}@keyframes ec4qhmsv5c9j72_c_o{0%{opacity:.42}.4%{opacity:0}}#ec4qhmsv5c9j1{pointer-events:all}#ec4qhmsv5c9j1 *{animation-play-state:paused!important}#ec4qhmsv5c9j1:hover *{animation-play-state:running!important}#ec4qhmsv5c9j5_ts{animation:ec4qhmsv5c9j5_ts__ts 25000ms linear infinite normal forwards}#ec4qhmsv5c9j25_ts{animation:ec4qhmsv5c9j25_ts__ts 25000ms linear infinite normal forwards}#ec4qhmsv5c9j36{animation:ec4qhmsv5c9j36_f_p 25000ms linear infinite normal forwards}#ec4qhmsv5c9j37{animation:ec4qhmsv5c9j37_f_p 25000ms linear infinite normal forwards}#ec4qhmsv5c9j48_to{animation:ec4qhmsv5c9j48_to__to 25000ms linear infinite normal forwards}#ec4qhmsv5c9j49_ts{animation:ec4qhmsv5c9j49_ts__ts 25000ms linear infinite normal forwards}#ec4qhmsv5c9j50_ts{animation:ec4qhmsv5c9j50_ts__ts 25000ms linear infinite normal forwards}#ec4qhmsv5c9j51_ts{animation:ec4qhmsv5c9j51_ts__ts 25000ms linear infinite normal forwards}#ec4qhmsv5c9j52_ts{animation:ec4qhmsv5c9j52_ts__ts 25000ms linear infinite normal forwards}#ec4qhmsv5c9j53_to{animation:ec4qhmsv5c9j53_to__to 25000ms linear infinite normal forwards}#ec4qhmsv5c9j54_ts{animation:ec4qhmsv5c9j54_ts__ts 25000ms linear infinite normal forwards}#ec4qhmsv5c9j55_ts{animation:ec4qhmsv5c9j55_ts__ts 25000ms linear infinite normal forwards}#ec4qhmsv5c9j56_ts{animation:ec4qhmsv5c9j56_ts__ts 25000ms linear infinite normal forwards}#ec4qhmsv5c9j58_to{animation:ec4qhmsv5c9j58_to__to 25000ms linear infinite normal forwards}#ec4qhmsv5c9j59_ts{animation:ec4qhmsv5c9j59_ts__ts 25000ms linear infinite normal forwards}#ec4qhmsv5c9j60_ts{animation:ec4qhmsv5c9j60_ts__ts 25000ms linear infinite normal forwards}#ec4qhmsv5c9j61_ts{animation:ec4qhmsv5c9j61_ts__ts 25000ms linear infinite normal forwards}#ec4qhmsv5c9j62_ts{animation:ec4qhmsv5c9j62_ts__ts 25000ms linear infinite normal forwards}#ec4qhmsv5c9j63_to{animation:ec4qhmsv5c9j63_to__to 25000ms linear infinite normal forwards}#ec4qhmsv5c9j64_ts{animation:ec4qhmsv5c9j64_ts__ts 25000ms linear infinite normal forwards}#ec4qhmsv5c9j65_ts{animation:ec4qhmsv5c9j65_ts__ts 25000ms linear infinite normal forwards}#ec4qhmsv5c9j66_ts{animation:ec4qhmsv5c9j66_ts__ts 25000ms linear infinite normal forwards}#ec4qhmsv5c9j67_ts{animation:ec4qhmsv5c9j67_ts__ts 25000ms linear infinite normal forwards}#ec4qhmsv5c9j72{animation:ec4qhmsv5c9j72_c_o 25000ms linear infinite normal forwards}</style><g id="ec4qhmsv5c9j2"><g id="ec4qhmsv5c9j3"><rect id="ec4qhmsv5c9j4" width="160" height="130" fill="#F5F5F5" stroke="none" stroke-width="1" rx="0" ry="0" transform="matrix(-1 0 -0 -1 159.98437500000000 130)"/><g id="ec4qhmsv5c9j5_ts" transform="translate(79.984375,105) scale(1,1)"><rect id="ec4qhmsv5c9j5" width="140" height="30" fill="#BBDEFB" stroke="none" stroke-width="1" rx="0" ry="0" transform="translate(-69.984375,-15)"/></g><rect id="ec4qhmsv5c9j6" width="200" height="60" fill="#FDE293" stroke="none" stroke-width="1" rx="0" ry="0" transform="matrix(-1 0 -0 -1 520 60.00000000000004)"/><rect id="ec4qhmsv5c9j7" width="200" height="70" fill="#FDD663" stroke="none" stroke-width="1" rx="0" ry="0" transform="matrix(-1 0 -0 -1 520 130.00000000000006)"/><rect id="ec4qhmsv5c9j8" width="10" height="40" fill="#FEF7E0" stroke="#9AA0A6" stroke-width="1" rx="0" ry="0" transform="matrix(-1 0 -0 -1 340 120.00000000000004)"/><rect id="ec4qhmsv5c9j9" width="10" height="40" fill="#FEF7E0" stroke="#9AA0A6" stroke-width="1" rx="0" ry="0" transform="matrix(-1 0 -0 -1 350 120.00000000000004)"/><rect id="ec4qhmsv5c9j10" width="10" height="40" fill="#FEF7E0" stroke="#9AA0A6" stroke-width="1" rx="0" ry="0" transform="matrix(-1 0 -0 -1 360 120.00000000000004)"/><rect id="ec4qhmsv5c9j11" width="10" height="40" fill="#FEF7E0" stroke="#9AA0A6" stroke-width="1" rx="0" ry="0" transform="matrix(-1 0 -0 -1 370 120.00000000000004)"/><rect id="ec4qhmsv5c9j12" width="10" height="40" fill="#FEF7E0" stroke="#9AA0A6" stroke-width="1" rx="0" ry="0" transform="matrix(-1 0 -0 -1 380 120.00000000000004)"/><rect id="ec4qhmsv5c9j13" width="10" height="40" fill="#FEF7E0" stroke="#9AA0A6" stroke-width="1" rx="0" ry="0" transform="matrix(-1 0 -0 -1 390 120.00000000000004)"/><rect id="ec4qhmsv5c9j14" width="10" height="40" fill="#FEF7E0" stroke="#9AA0A6" stroke-width="1" rx="0" ry="0" transform="matrix(-1 0 -0 -1 400 120.00000000000004)"/><rect id="ec4qhmsv5c9j15" width="10" height="40" fill="#FEF7E0" stroke="#9AA0A6" stroke-width="1" rx="0" ry="0" transform="matrix(-1 0 -0 -1 410 120.00000000000004)"/><rect id="ec4qhmsv5c9j16" width="10" height="40" fill="#FEF7E0" stroke="#9AA0A6" stroke-width="1" rx="0" ry="0" transform="matrix(-1 0 -0 -1 420 120.00000000000006)"/><rect id="ec4qhmsv5c9j17" width="10" height="40" fill="#FEF7E0" stroke="#9AA0A6" stroke-width="1" rx="0" ry="0" transform="matrix(-1 0 -0 -1 430 120.00000000000006)"/><rect id="ec4qhmsv5c9j18" width="10" height="40" fill="#FEF7E0" stroke="#9AA0A6" stroke-width="1" rx="0" ry="0" transform="matrix(-1 0 -0 -1 440 120.00000000000006)"/><rect id="ec4qhmsv5c9j19" width="70" height="20" fill="none" fill-rule="evenodd" stroke="none" stroke-width="1" rx="0" ry="0" transform="matrix(1 0 0 1 440 90)"/><g id="ec4qhmsv5c9j20" transform="matrix(1 0 0 1 448.50000000000000 88.50000000000000)"><g id="ec4qhmsv5c9j21"><text id="ec4qhmsv5c9j22" fill="#80868B" fill-rule="evenodd" stroke="none" stroke-width="1" dx="0" dy="0" font-family="RobotoMono-Regular, &quot;Roboto Mono&quot;" font-size="14" transform="matrix(1 0 0 1 0.50000000000000 19)"><![CDATA[
                        Buf #0
                    ]]></text></g></g><polyline id="ec4qhmsv5c9j23" fill="none" fill-rule="evenodd" stroke="#80868B" stroke-width="1" points="280 60 300 60 300 77.52 313.63 77.51"/><polygon id="ec4qhmsv5c9j24" fill="#80868B" stroke="#80868B" stroke-width="1" points="318.88 77.5 311.89 81.01 313.63 77.51 311.88 74.01"/><g id="ec4qhmsv5c9j25_ts" transform="translate(79.984375,75) scale(1,1)"><rect id="ec4qhmsv5c9j25" width="140" height="30" fill="#DCEDC8" stroke="none" stroke-width="1" rx="0" ry="0" transform="translate(-70,-15)"/></g><text id="ec4qhmsv5c9j26" fill="#5F6368" fill-rule="evenodd" stroke="none" stroke-width="1" dx="0" dy="0" font-family="RobotoMono-Regular, &quot;Roboto Mono&quot;" font-size="14" transform="matrix(1 0 0 1 17 80.43749999999999)"><![CDATA[
                Data source 1
            ]]></text><text id="ec4qhmsv5c9j27" fill="#5F6368" fill-rule="evenodd" stroke="none" stroke-width="1" dx="0" dy="0" font-family="RobotoMono-Regular, &quot;Roboto Mono&quot;" font-size="14" transform="matrix(1 0 0 1 17 111.96093750000000)"><![CDATA[
                Data source 2
            ]]></text><rect id="ec4qhmsv5c9j28" width="80" height="80" fill="#F5F5F5" stroke="none" stroke-width="1" rx="0" ry="0" transform="matrix(-1 0 -0 -1 280 80.00000000000003)"/><rect id="ec4qhmsv5c9j29" width="10" height="40" fill="#FFF" stroke="#9AA0A6" stroke-width="1" rx="0" ry="0" transform="matrix(-1 0 -0 -1 230 75.00000000000003)"/><rect id="ec4qhmsv5c9j30" width="10" height="40" fill="#FFF" stroke="#9AA0A6" stroke-width="1" rx="0" ry="0" transform="matrix(-1 0 -0 -1 239.99218750000000 75.00000000000003)"/><rect id="ec4qhmsv5c9j31" width="10" height="40" fill="#FFF" stroke="#9AA0A6" stroke-width="1" rx="0" ry="0" transform="matrix(-1 0 -0 -1 250 75.00000000000003)"/><rect id="ec4qhmsv5c9j32" width="10" height="40" fill="#FFF" stroke="#9AA0A6" stroke-width="1" rx="0" ry="0" transform="matrix(-1 0 -0 -1 260 75.00000000000003)"/><line id="ec4qhmsv5c9j33" x1="160" x2="193.63" y1="65" y2="65" fill="none" fill-rule="evenodd" stroke="#80868B" stroke-width="1"/><polygon id="ec4qhmsv5c9j34" fill="#80868B" stroke="#80868B" stroke-width="1" points="198.88 65 191.88 68.5 193.63 65 191.88 61.5"/><g id="ec4qhmsv5c9j35" transform="matrix(-1 0 -0 -1 469.98437500000000 219.99999999999997)"><polygon id="ec4qhmsv5c9j36" fill="#F5F5F5" stroke="none" stroke-width="1" points="165.5 117.78 165.5 102.22 296.67 102.22 296.67 96.94 314.5 110 296.67 123.06 296.67 117.78" transform="matrix(-0.89533244155904 0 -0 -1 441.56642786531881 219.99999999999997)"/><polygon id="ec4qhmsv5c9j37" fill="#F5F5F5" stroke="none" stroke-width="1" points="165.5 117.78 165.5 102.22 296.67 102.22 296.67 96.94 314.5 110 296.67 123.06 296.67 117.78" transform="matrix(0.89533244155904 0 0 1 27.57653802468090 0.05468750000000)"/><rect id="ec4qhmsv5c9j38" width="80" height="80" fill="#F5F5F5" stroke="none" stroke-width="1" rx="0" ry="0" transform="matrix(-1.46420418416810 0 -0 -0.19473433688385 293.06746650343666 117.79657534053530)"/></g><g id="ec4qhmsv5c9j39" transform="matrix(1 0 0 1 205.50000000000000 102.50000000000000)"><g id="ec4qhmsv5c9j40"><text id="ec4qhmsv5c9j41" fill="#5F6368" fill-rule="evenodd" stroke="none" stroke-width="1" dx="0" dy="0" font-family="RobotoMono-Regular, &quot;Roboto Mono&quot;" font-size="10" transform="matrix(1 0 0 1 1.49218750000000 11.44531250000000)"><![CDATA[
                        IPC Channel
                    ]]></text></g></g><rect id="ec4qhmsv5c9j42" width="40" height="20" fill="none" fill-rule="evenodd" stroke="none" stroke-width="1" rx="0" ry="0" transform="matrix(1 0 0 1 340 110)"/><rect id="ec4qhmsv5c9j43" width="40" height="20" fill="none" fill-rule="evenodd" stroke="none" stroke-width="1" rx="0" ry="0" transform="matrix(1 0 0 1 180 130)"/><text id="ec4qhmsv5c9j44" fill="#75797F" fill-rule="evenodd" stroke="none" stroke-width="1" dx="0" dy="0" font-family="RobotoMono-Regular, &quot;Roboto Mono&quot;" font-size="18" transform="matrix(1 0 0 1 36.78125000000000 31)"><![CDATA[
                Producer
            ]]></text><text id="ec4qhmsv5c9j45" fill="#6A6E74" fill-rule="evenodd" stroke="none" stroke-width="1" dx="0" dy="0" font-family="RobotoMono-Regular, &quot;Roboto Mono&quot;" font-size="18" transform="matrix(1 0 0 1 212.98437500000000 24)"><![CDATA[
                shmem
            ]]></text><text id="ec4qhmsv5c9j46" fill="#6A6E74" fill-rule="evenodd" stroke="none" stroke-width="1" dx="0" dy="0" font-family="RobotoMono-Regular, &quot;Roboto Mono&quot;" font-size="18" transform="matrix(1 0 0 1 340 36.98437500000000)"><![CDATA[
                Tracing service
            ]]></text></g><circle id="ec4qhmsv5c9j47" r="7" fill="#607D8B" fill-rule="evenodd" stroke="none" stroke-width="1" transform="matrix(1 0 0 1 138 75)"/><g id="ec4qhmsv5c9j48_to" transform="translate(0,0)"><g id="ec4qhmsv5c9j48" transform="translate(0,0)"><g id="ec4qhmsv5c9j49_ts" transform="translate(225,68) scale(0,0)"><circle id="ec4qhmsv5c9j49" r="3" fill="#607D8B" fill-rule="evenodd" stroke="none" stroke-width="1" transform="translate(-0,0)"/></g><g id="ec4qhmsv5c9j50_ts" transform="translate(225,41) scale(0,0)"><circle id="ec4qhmsv5c9j50" r="3" fill="#607D8B" fill-rule="evenodd" stroke="none" stroke-width="1" transform="translate(0,0)"/></g><g id="ec4qhmsv5c9j51_ts" transform="translate(225,50) scale(0,0)"><circle id="ec4qhmsv5c9j51" r="3" fill="#607D8B" fill-rule="evenodd" stroke="none" stroke-width="1" transform="translate(0,0)"/></g><g id="ec4qhmsv5c9j52_ts" transform="translate(225,59) scale(0,0)"><circle id="ec4qhmsv5c9j52" r="3" fill="#607D8B" fill-rule="evenodd" stroke="none" stroke-width="1" transform="translate(0,0)"/></g></g></g><g id="ec4qhmsv5c9j53_to" transform="translate(0,0)"><g id="ec4qhmsv5c9j53" transform="translate(0,0)"><g id="ec4qhmsv5c9j54_ts" transform="translate(245,41) scale(0,0)"><circle id="ec4qhmsv5c9j54" r="3" fill="#607D8B" fill-rule="evenodd" stroke="none" stroke-width="1" transform="translate(0,0)"/></g><g id="ec4qhmsv5c9j55_ts" transform="translate(245,50) scale(0,0)"><circle id="ec4qhmsv5c9j55" r="3" fill="#607D8B" fill-rule="evenodd" stroke="none" stroke-width="1" transform="translate(0,0)"/></g><g id="ec4qhmsv5c9j56_ts" transform="translate(245,59) scale(0,0)"><circle id="ec4qhmsv5c9j56" r="3" fill="#607D8B" fill-rule="evenodd" stroke="none" stroke-width="1" transform="translate(0,0)"/></g></g></g><rect id="ec4qhmsv5c9j57" width="13" height="13" fill="#607D8B" fill-rule="evenodd" stroke="none" stroke-width="1" rx="0" ry="0" transform="matrix(1 0 0 1 131 100)"/><g id="ec4qhmsv5c9j58_to" transform="translate(0,0)"><g id="ec4qhmsv5c9j58" transform="translate(0,0)"><g id="ec4qhmsv5c9j59_ts" transform="translate(234.992188,41) scale(0,0)"><rect id="ec4qhmsv5c9j59" width="6" height="6" fill="#607D8B" fill-rule="evenodd" stroke="none" stroke-width="1" rx="0" ry="0" transform="translate(-2.992188,-3)"/></g><g id="ec4qhmsv5c9j60_ts" transform="translate(234.992188,50) scale(0,0)"><rect id="ec4qhmsv5c9j60" width="6" height="6" fill="#607D8B" fill-rule="evenodd" stroke="none" stroke-width="1" rx="0" ry="0" transform="translate(-2.992188,-3)"/></g><g id="ec4qhmsv5c9j61_ts" transform="translate(234.992188,59) scale(0,0)"><rect id="ec4qhmsv5c9j61" width="6" height="6" fill="#607D8B" fill-rule="evenodd" stroke="none" stroke-width="1" rx="0" ry="0" transform="translate(-2.992187,-3)"/></g><g id="ec4qhmsv5c9j62_ts" transform="translate(234.992188,68) scale(0,0)"><rect id="ec4qhmsv5c9j62" width="6" height="6" fill="#607D8B" fill-rule="evenodd" stroke="none" stroke-width="1" rx="0" ry="0" transform="translate(-2.992188,-3)"/></g></g></g><g id="ec4qhmsv5c9j63_to" transform="translate(0,0)"><g id="ec4qhmsv5c9j63" transform="translate(0,0)"><g id="ec4qhmsv5c9j64_ts" transform="translate(255,41) scale(0,0)"><rect id="ec4qhmsv5c9j64" width="6" height="6" fill="#607D8B" fill-rule="evenodd" stroke="none" stroke-width="1" rx="0" ry="0" transform="translate(-3,-3)"/></g><g id="ec4qhmsv5c9j65_ts" transform="translate(255,50) scale(0,0)"><rect id="ec4qhmsv5c9j65" width="6" height="6" fill="#607D8B" fill-rule="evenodd" stroke="none" stroke-width="1" rx="0" ry="0" transform="translate(-3,-3)"/></g><g id="ec4qhmsv5c9j66_ts" transform="translate(255,59) scale(0,0)"><rect id="ec4qhmsv5c9j66" width="6" height="6" fill="#607D8B" fill-rule="evenodd" stroke="none" stroke-width="1" rx="0" ry="0" transform="translate(-3,-3)"/></g></g></g></g><g id="ec4qhmsv5c9j67_ts" transform="translate(239.133524,134.619247) scale(0,0)"><g id="ec4qhmsv5c9j67" transform="translate(-49.981785,-50)"><line id="ec4qhmsv5c9j68" x1="43.25" x2="43.25" y1="40.75" y2="59.25" fill="none" stroke="#5483CC" stroke-linecap="round" stroke-linejoin="round" stroke-width="7"/><line id="ec4qhmsv5c9j69" x1="56.75" x2="56.75" y1="40.75" y2="59.25" fill="none" stroke="#5483CC" stroke-linecap="round" stroke-linejoin="round" stroke-width="7"/><circle id="ec4qhmsv5c9j70" r="25" fill="none" stroke="#546E7A" stroke-linecap="round" stroke-linejoin="round" stroke-width="7" transform="matrix(1 0 0 1 50 50)"/><rect id="ec4qhmsv5c9j71" width="48" height="48" fill="#DD2C00" stroke="none" stroke-width="1" rx="6.22" ry="6.22" transform="matrix(0.54239151367153 0 0 0.55299458693109 36.96438910975433 36.75852079295539)"/></g></g><g id="ec4qhmsv5c9j72" opacity=".42" transform="matrix(2.18484486164398 0 0 2.01568168230577 130.75775692000002 -23.26408411500005)"><circle id="ec4qhmsv5c9j73" r="25" fill="none" stroke="#5483CC" stroke-linecap="round" stroke-linejoin="round" stroke-width="7" transform="matrix(1 0 0 1 50 50)"/><path id="ec4qhmsv5c9j74" fill="#5483CC" stroke="none" stroke-width="1" d="M62.850000,48L46.340000,36C45.591947,35.450677,44.597719,35.371193,43.771894,35.794693C42.946069,36.218193,42.430434,37.071966,42.440000,38L42.440000,62.070000C42.430434,62.998034,42.946069,63.851807,43.771894,64.275307C44.597719,64.698807,45.591947,64.619323,46.340000,64.070000L62.850000,52C63.499062,51.540757,63.884903,50.795101,63.884903,50C63.884903,49.204899,63.499062,48.459243,62.850000,48Z"/></g></svg>